# xmcd
#
# Track frame offsets:
#	150
#	13775
#	22743
#	31839
#	42588
#	54934
#	67894
#	79601
#	92909
#	104438
#	117143
#	128263
#	142377
#	155065
#	164682
#	175507
#	185359
#	201130
#	210931
#	224138
#	236977
#	245589
#	253625
#
# Disc length: 3541 seconds
#
# Revision: 2
# Processed by: cddbd v1.5.2PL0 Copyright (c) Steve Scherf et al.
# Submitted via: audiograbber 1.83.01
#
DISCID=410dd317
DTITLE=slim whitman - six classic albums cd3
DYEAR=2013
DGENRE=Country
TTITLE0=lovesick blues
TTITLE1=unchain my heart
TTITLE2=hush-a-bye
TTITLE3=careless love
TTITLE4=the whiffenpoof song
TTITLE5=blue eyes crying in the rain
TTITLE6=when my blue moon turns to gold again
TTITLE7=that silver haired daddy of mine
TTITLE8=a petal from a faded rose
TTITLE9=i'll never take you back again
TTITLE10=singing hills
TTITLE11=i'll walk with god
TTITLE12=whispering hope
TTITLE13=i'm a pilgrim
TTITLE14=an evening prayer
TTITLE15=jesus took my burden
TTITLE16=sunrise
TTITLE17=walk beside me
TTITLE18=each step i take
TTITLE19=the great judgement morning
TTITLE20=he lives on high
TTITLE21=today is mine
TTITLE22=when i go to my garden
EXTD=
EXTT0=
EXTT1=
EXTT2=
EXTT3=
EXTT4=
EXTT5=
EXTT6=
EXTT7=
EXTT8=
EXTT9=
EXTT10=
EXTT11=
EXTT12=
EXTT13=
EXTT14=
EXTT15=
EXTT16=
EXTT17=
EXTT18=
EXTT19=
EXTT20=
EXTT21=
EXTT22=
PLAYORDER=
